<?xml version="1.0" encoding="UTF-8" standalone="no"?>
<svg width="1440px" height="551px" viewBox="0 0 1440 551" version="1.1" xmlns="http://www.w3.org/2000/svg" xmlns:xlink="http://www.w3.org/1999/xlink">
    <!-- Generator: Sketch 3.6.1 (26313) - http://www.bohemiancoding.com/sketch -->
    <title>EXHAUST</title>
    <desc>Created with Sketch.</desc>
    <defs></defs>
    <g id="Page-1" stroke="none" stroke-width="1" fill="none" fill-rule="evenodd">
        <g id="SCENE" transform="translate(0.000000, -637.000000)" fill="#E9EFF0">
            <g id="EXHAUST" transform="translate(0.000000, 637.000000)">
                <path d="M868.855622,300.27468 C914.609012,300.27468 951.699463,263.69311 951.699463,218.567456 C951.699463,173.441802 914.609012,136.860232 868.855622,136.860232 C823.102232,136.860232 786.011781,173.441802 786.011781,218.567456 C786.011781,263.69311 823.102232,300.27468 868.855622,300.27468 Z" id="Oval-1"></path>
                <path d="M789.397361,331.427085 C830.458095,331.427085 863.744397,298.59747 863.744397,258.100089 C863.744397,217.602707 830.458095,184.773092 789.397361,184.773092 C748.336626,184.773092 715.050324,217.602707 715.050324,258.100089 C715.050324,298.59747 748.336626,331.427085 789.397361,331.427085 Z" id="Oval-1"></path>
                <path d="M462.937955,335.835615 C520.412286,335.835615 567.004437,289.882707 567.004437,233.196924 C567.004437,176.51114 520.412286,130.558233 462.937955,130.558233 C405.463624,130.558233 358.871473,176.51114 358.871473,233.196924 C358.871473,289.882707 405.463624,335.835615 462.937955,335.835615 Z" id="Oval-1"></path>
                <path d="M152.545354,377.046734 C236.793826,377.046734 305.090708,309.686885 305.090708,226.594301 C305.090708,143.501717 236.793826,76.1418681 152.545354,76.1418681 C68.2968812,76.1418681 0,143.501717 0,226.594301 C0,309.686885 68.2968812,377.046734 152.545354,377.046734 Z" id="Oval-1"></path>
                <ellipse id="Oval-1" cx="968.427367" cy="180.174905" rx="53.1050263" ry="52.3764259"></ellipse>
                <ellipse id="Oval-1" cx="1160.66756" cy="158.176806" rx="160.377179" ry="158.176806"></ellipse>
                <ellipse id="Oval-1" cx="631.292154" cy="262.079856" rx="112.169897" ry="110.630927"></ellipse>
                <path d="M1267.93971,406.441065 C1362.96599,406.441065 1440,330.463957 1440,236.741445 C1440,143.018933 1362.96599,67.0418251 1267.93971,67.0418251 C1172.91344,67.0418251 1095.87943,143.018933 1095.87943,236.741445 C1095.87943,330.463957 1172.91344,406.441065 1267.93971,406.441065 L1267.93971,406.441065 Z" id="Oval-1"></path>
                <ellipse id="Oval-1" cx="322.050173" cy="149.535748" rx="143.742963" ry="141.770811"></ellipse>
                <rect id="Rectangle-1" x="5.68434189e-14" y="211.60076" width="1440" height="339.39924"></rect>
            </g>
        </g>
    </g>
</svg>