<?xml version="1.0" encoding="UTF-8" standalone="no"?>
<svg width="709px" height="263px" viewBox="0 0 709 263" version="1.1" xmlns="http://www.w3.org/2000/svg" xmlns:xlink="http://www.w3.org/1999/xlink">
    <!-- Generator: Sketch 3.6.1 (26313) - http://www.bohemiancoding.com/sketch -->
    <title>exhaust</title>
    <desc>Created with Sketch.</desc>
    <defs></defs>
    <g id="Page-1" stroke="none" stroke-width="1" fill="none" fill-rule="evenodd">
        <g id="exhaust" fill="#E9EFF0">
            <g id="Page-1">
                <g id="Group">
                    <path d="M439.908451,156 C461.295872,156 478.633803,138.539105 478.633803,117 C478.633803,95.4608948 461.295872,78 439.908451,78 C418.521029,78 401.183099,95.4608948 401.183099,117 C401.183099,138.539105 418.521029,156 439.908451,156 Z" id="Oval-1"></path>
                    <path d="M374.373239,156 C393.567079,156 409.126761,140.329966 409.126761,121 C409.126761,101.670034 393.567079,86 374.373239,86 C355.1794,86 339.619718,101.670034 339.619718,121 C339.619718,140.329966 355.1794,156 374.373239,156 Z" id="Oval-1"></path>
                    <path d="M213.514085,171 C245.321019,171 271.105634,145.032515 271.105634,113 C271.105634,80.9674845 245.321019,55 213.514085,55 C181.70715,55 155.922535,80.9674845 155.922535,113 C155.922535,145.032515 181.70715,171 213.514085,171 Z" id="Oval-1"></path>
                    <path d="M57.5915493,182 C89.3984837,182 115.183099,156.032515 115.183099,124 C115.183099,91.9674845 89.3984837,66 57.5915493,66 C25.7846149,66 0,91.9674845 0,124 C0,156.032515 25.7846149,182 57.5915493,182 Z" id="Oval-1"></path>
                    <ellipse id="Oval-1" cx="488.56338" cy="86" rx="24.8239437" ry="25"></ellipse>
                    <ellipse id="Oval-1" cx="578.426056" cy="75.5" rx="74.9683099" ry="75.5"></ellipse>
                    <ellipse id="Oval-1" cx="298.411972" cy="151.5" rx="74.9683099" ry="75.5"></ellipse>
                    <path d="M628.570423,194 C672.990452,194 709,157.735065 709,113 C709,68.2649353 672.990452,32 628.570423,32 C584.150393,32 548.140845,68.2649353 548.140845,113 C548.140845,157.735065 584.150393,194 628.570423,194 L628.570423,194 Z" id="Oval-1"></path>
                    <ellipse id="Oval-1" cx="118.68662" cy="92.5" rx="77.9471831" ry="78.5"></ellipse>
                    <rect id="Rectangle-1" x="4" y="101" width="705" height="162"></rect>
                </g>
            </g>
        </g>
    </g>
</svg>