<?xml version="1.0" encoding="utf-8"?>
<!-- Generator: Adobe Illustrator 16.0.0, SVG Export Plug-In . SVG Version: 6.00 Build 0)  -->
<!DOCTYPE svg PUBLIC "-//W3C//DTD SVG 1.1//EN" "http://www.w3.org/Graphics/SVG/1.1/DTD/svg11.dtd">
<svg version="1.1" id="Layer_1" xmlns="http://www.w3.org/2000/svg" xmlns:xlink="http://www.w3.org/1999/xlink" x="0px" y="0px"
	 width="264.488px" height="371.559px" viewBox="0 0 264.488 371.559" enable-background="new 0 0 264.488 371.559"
	 xml:space="preserve">
<g id="Layer_34">
</g>
<g id="Layer_20">
</g>
<g id="Layer_6">
</g>
<g id="ruler">
</g>
<g id="papers_2">
</g>
<g id="coffee">
</g>
<g id="papers">
</g>
<g id="blueprint">
</g>
<g id="Layer_14">
</g>
<g id="pencil">
</g>
<g id="wrench">
</g>
<g id="roll">
</g>
<g id="tablet">
</g>
<g id="Layer_21">
</g>
<g id="Layer_22">
</g>
<g>
	<g>
		<g>
			
				<ellipse transform="matrix(0.8291 -0.559 0.559 0.8291 3.8468 79.4042)" fill="#2E929A" stroke="#F1F1F2" stroke-width="3" stroke-linecap="round" stroke-miterlimit="10" cx="131.825" cy="33.409" rx="4.221" ry="2.959"/>
			
				<line fill="#2E929A" stroke="#F1F1F2" stroke-width="3" stroke-linecap="round" stroke-miterlimit="10" x1="121.673" y1="53.439" x2="141.41" y2="51.984"/>
			
				<line fill="#2E929A" stroke="#F1F1F2" stroke-width="3" stroke-linecap="round" stroke-miterlimit="10" x1="125.89" y1="44.604" x2="137.193" y2="45.432"/>
		</g>
	</g>
	
		<line fill="#2E929A" stroke="#F1F1F2" stroke-width="3" stroke-linecap="round" stroke-miterlimit="10" x1="131.476" y1="36.716" x2="131.772" y2="60.034"/>
	<path opacity="0.8" fill="#2E929A" stroke="#F1F1F2" stroke-miterlimit="10" d="M171.394,120.487l-53.697,1.249v-0.083
		c-0.01,0.029-0.019,0.057-0.027,0.083l-11.584,0.271c-0.037-0.036-0.075-0.071-0.109-0.106l65.421-1.416L171.394,120.487z"/>
	<g>
		<g>
			<g>
				<path fill="#2E929A" stroke="#F1F1F2" stroke-width="2" stroke-miterlimit="10" d="M99.737,343.865
					c3.194,0.895,4.768,3.295,7.786,4.048c16.216,0,32.431,0,48.648,0c3.016-0.753,4.592-3.153,7.785-4.048"/>
				<path fill="#2E929A" stroke="#F1F1F2" stroke-width="2" stroke-miterlimit="10" d="M155.774,322.141
					c-3.348-2.473-5.124-3.616-8.442-5.407c-10.492,0-20.983,0-31.476,0c-3.157,1.791-4.825,2.935-7.934,5.407
					c-3.046,5.638-5.472,10.393-5.02,17.018c19.296,0,38.594,0,57.89,0C161.245,332.533,158.818,327.779,155.774,322.141z
					 M161.066,339.159c-19.48,0-38.961,0-58.441,0c-1.657,2.047-2.292,3.018-2.888,4.705c21.404-0.002,42.813,0,64.22,0
					C163.36,342.177,162.722,341.206,161.066,339.159z"/>
				<path fill="#2E929A" stroke="#F1F1F2" stroke-width="2" stroke-linejoin="round" stroke-miterlimit="10" d="M115.856,316.734
					c10.492,0,20.983,0,31.476,0c3.318,1.791,5.095,2.935,8.442,5.407c-15.95,0-31.902,0-47.852,0
					C111.031,319.668,112.699,318.525,115.856,316.734z"/>
				<path fill="#2E929A" stroke="#F1F1F2" stroke-width="2" stroke-miterlimit="10" d="M102.625,339.159c19.48,0,38.961,0,58.441,0
					c1.656,2.047,2.294,3.018,2.891,4.705c-21.407,0-42.815-0.002-64.22,0C100.333,342.177,100.968,341.206,102.625,339.159z"/>
				<path fill="#2E929A" stroke="#F1F1F2" stroke-width="2" stroke-miterlimit="10" d="M155.774,322.141
					c3.044,5.638,5.471,10.393,5.019,17.018c-19.296,0-38.594,0-57.89,0c-0.452-6.625,1.974-11.38,5.02-17.018
					C123.872,322.141,139.824,322.141,155.774,322.141"/>
			</g>
		</g>
		<line fill="#2E929A" stroke="#F1F1F2" stroke-miterlimit="10" x1="106.322" y1="338.6" x2="107.923" y2="322.141"/>
		<line fill="#2E929A" stroke="#F1F1F2" stroke-miterlimit="10" x1="149.636" y1="322.141" x2="151.821" y2="339.352"/>
		<line fill="#2E929A" stroke="#F1F1F2" stroke-miterlimit="10" x1="111.55" y1="322.141" x2="111.152" y2="339.158"/>
		<line fill="#2E929A" stroke="#F1F1F2" stroke-miterlimit="10" x1="156.299" y1="339.536" x2="152.911" y2="322.141"/>
		<line fill="#2E929A" stroke="#F1F1F2" stroke-miterlimit="10" x1="115.674" y1="322.141" x2="115.453" y2="338.6"/>
		<line fill="#2E929A" stroke="#F1F1F2" stroke-miterlimit="10" x1="120.854" y1="338.6" x2="118.65" y2="322.141"/>
		<line fill="#2E929A" stroke="#F1F1F2" stroke-miterlimit="10" x1="124.051" y1="322.141" x2="124.379" y2="338.6"/>
		<line fill="#2E929A" stroke="#F1F1F2" stroke-miterlimit="10" x1="129.23" y1="338.6" x2="128.237" y2="322.141"/>
		<line fill="#2E929A" stroke="#F1F1F2" stroke-miterlimit="10" x1="133.198" y1="322.141" x2="133.42" y2="338.6"/>
		<line fill="#2E929A" stroke="#F1F1F2" stroke-miterlimit="10" x1="138.158" y1="338.6" x2="137.167" y2="322.141"/>
		<line fill="#2E929A" stroke="#F1F1F2" stroke-miterlimit="10" x1="141.577" y1="322.141" x2="143.56" y2="338.6"/>
		<line fill="#2E929A" stroke="#F1F1F2" stroke-miterlimit="10" x1="147.528" y1="338.6" x2="146.222" y2="322.141"/>
	</g>
	<g>
		<path fill="#2E929A" stroke="#F1F1F2" stroke-width="3" stroke-miterlimit="10" d="M117.934,303.896
			c-22.877,13.691-32.101,25.53-38.097,36.03c0-20.872,0-26.037,0-26.037s3.429-13.956,21.16-39.225"/>
		<path fill="#2E929A" stroke="#F1F1F2" stroke-miterlimit="10" d="M79.838,313.889c0,0,16.373-27.544,21.725-33.403"/>
	</g>
	<g>
		<path fill="#2E929A" stroke="#F1F1F2" stroke-width="3" stroke-miterlimit="10" d="M145.507,303.896
			c22.878,13.691,32.101,25.53,38.096,36.03c0-20.872,0-26.037,0-26.037s-3.427-13.956-21.159-39.225"/>
		<path fill="#2E929A" stroke="#F1F1F2" stroke-miterlimit="10" d="M183.602,313.889c0,0-16.371-27.544-21.724-33.403"/>
	</g>
	<path fill="#2E929A" stroke="#F1F1F2" stroke-width="3" stroke-miterlimit="10" d="M165.849,104.118l-68.266,1.586h-0.475
		c-10.891,27.882-12.668,64.231-5.817,111.375c10.159,69.906,19.747,93.826,19.747,93.826h41.514c0,0,9.586-23.92,19.747-93.826
		C179.281,169.038,177.302,132.202,165.849,104.118z"/>
	<path fill="#2E929A" stroke="#F1F1F2" stroke-miterlimit="10" d="M165.849,104.118l-68.266,1.586h-0.475
		c-10.891,27.882-12.668,64.231-5.817,111.375c10.159,69.906,19.747,93.826,19.747,93.826h41.514c0,0,9.586-23.92,19.747-93.826
		C179.281,169.038,177.302,132.202,165.849,104.118z"/>
	<path fill="#2E929A" stroke="#F1F1F2" stroke-miterlimit="10" d="M165.849,104.118l-13.006,0.319
		c10.198,31.256,12.04,70.936,5.338,120.039c-1.673,12.243-3.213,23.069-4.522,31.805l12.117,0.47
		c2.084-11.158,4.29-24.303,6.523-39.67C179.281,169.038,177.302,132.202,165.849,104.118z"/>
	<path fill="#2E929A" stroke="#F1F1F2" stroke-miterlimit="10" d="M110.255,105.41l-12.671,0.294h-0.475
		c-10.891,27.882-12.668,64.231-5.817,111.375c2.058,14.163,4.094,26.439,6.03,37.011l12.196,0.477
		c-1.265-8.467-2.695-18.433-4.284-30.092C98.598,175.881,100.336,136.515,110.255,105.41z"/>
	<path fill="#2E929A" stroke="#F1F1F2" stroke-width="3" stroke-miterlimit="10" d="M165.849,104.118l-68.266,1.586h-0.475
		c-10.891,27.882-12.668,64.231-5.817,111.375c10.159,69.906,19.747,93.826,19.747,93.826h41.514c0,0,9.586-23.92,19.747-93.826
		C179.281,169.038,177.302,132.202,165.849,104.118z"/>
	<path fill="#2E929A" stroke="#F1F1F2" stroke-miterlimit="10" d="M153.709,255.829c1.309-8.735,2.8-19.11,4.473-31.354
		c6.702-49.103,4.86-88.782-5.338-120.039"/>
	<path fill="#2E929A" stroke="#F1F1F2" stroke-miterlimit="10" d="M110.283,105.327c-9.945,31.117-11.688,70.513-5.049,119.148
		c1.632,11.976,3.097,22.16,4.385,30.773"/>
	<line fill="#2E929A" stroke="#F1F1F2" stroke-miterlimit="10" x1="148.784" y1="310.906" x2="115.726" y2="310.898"/>
	<line fill="#2E929A" stroke="#F1F1F2" stroke-miterlimit="10" x1="99.602" y1="266.01" x2="163.802" y2="266.939"/>
	<line fill="#2E929A" stroke="#F1F1F2" stroke-miterlimit="10" x1="165.776" y1="256.75" x2="97.584" y2="254.105"/>
	<path fill="#2E929A" stroke="#F1F1F2" stroke-miterlimit="10" d="M153.709,255.829c1.309-8.735,2.8-19.11,4.473-31.354
		c6.702-49.103,4.86-88.782-5.338-120.039"/>
	<path fill="#2E929A" stroke="#F1F1F2" stroke-miterlimit="10" d="M110.283,105.327c-9.945,31.117-11.688,70.513-5.049,119.148
		c1.632,11.976,3.097,22.16,4.385,30.773"/>
	<line fill="#2E929A" stroke="#F1F1F2" stroke-miterlimit="10" x1="148.784" y1="310.906" x2="115.726" y2="310.898"/>
	<path fill="#2E929A" stroke="#F1F1F2" stroke-width="2" stroke-miterlimit="10" d="M154.605,314.561
		c0,1.378-1.114,2.492-2.493,2.492h-40.633c-1.378,0-2.494-1.114-2.494-2.492v-1.347c0-1.374,1.116-2.491,2.494-2.491h40.633
		c1.379,0,2.493,1.117,2.493,2.491V314.561z"/>
	<line fill="#2E929A" stroke="#F1F1F2" stroke-miterlimit="10" x1="165.776" y1="256.75" x2="97.584" y2="254.105"/>
	<path fill="#2E929A" stroke="#F1F1F2" stroke-width="3" stroke-miterlimit="10" d="M131.772,60.034
		c-15.807,11.806-27.313,26.761-34.668,45.572l68.745-1.488C158.474,86.005,147.161,71.528,131.772,60.034z"/>
	<g>
		<path fill="#2E929A" stroke="#F1F1F2" stroke-width="3" stroke-miterlimit="10" d="M75.669,264.686
			c-8.283,11.563-11.671,30.78-9.248,61.942c2.146,27.585,3.471,37.021,3.471,37.021h11.552c0,0,1.327-9.437,3.471-37.021
			C87.338,295.466,83.952,276.248,75.669,264.686z"/>
		<polyline fill="#2E929A" stroke="#F1F1F2" stroke-miterlimit="10" points="83.417,344.618 67.832,343.637 69.863,360.825 
			81.684,361.345 83.417,344.618 		"/>
		<path fill="#2E929A" stroke="#F1F1F2" stroke-miterlimit="10" d="M71.116,343.469c0.758,14.728,1.203,20.181,1.203,20.181"/>
		<path fill="#2E929A" stroke="#F1F1F2" stroke-miterlimit="10" d="M75.669,264.686c-4.802,11.563-6.766,30.78-5.362,61.942
			c0.301,6.618,0.57,12.191,0.81,16.841"/>
		
			<line fill="#2E929A" stroke="#F1F1F2" stroke-width="3" stroke-miterlimit="10" x1="67.832" y1="338.831" x2="84.051" y2="337.347"/>
		<line fill="#2E929A" stroke="#F1F1F2" stroke-miterlimit="10" x1="75.669" y1="343.637" x2="75.373" y2="363.65"/>
		
			<line fill="#2E929A" stroke="#F1F1F2" stroke-width="3" stroke-miterlimit="10" x1="67.832" y1="343.637" x2="82.915" y2="344.335"/>
	</g>
	<g>
		<path fill="#2E929A" stroke="#F1F1F2" stroke-width="3" stroke-miterlimit="10" d="M187.774,264.686
			c-8.284,11.563-11.67,30.78-9.249,61.942c2.146,27.585,3.473,37.021,3.473,37.021h11.553c0,0,1.327-9.437,3.469-37.021
			C199.443,295.466,196.056,276.248,187.774,264.686z"/>
		<polyline fill="#2E929A" stroke="#F1F1F2" stroke-miterlimit="10" points="195.524,344.618 179.937,343.637 181.969,360.825 
			193.789,361.345 195.524,344.618 		"/>
		<path fill="#2E929A" stroke="#F1F1F2" stroke-miterlimit="10" d="M183.222,343.469c0.758,14.728,1.202,20.181,1.202,20.181"/>
		<path fill="#2E929A" stroke="#F1F1F2" stroke-miterlimit="10" d="M187.774,264.686c-4.803,11.563-6.767,30.78-5.359,61.942
			c0.297,6.618,0.568,12.191,0.808,16.841"/>
		
			<line fill="#2E929A" stroke="#F1F1F2" stroke-width="3" stroke-miterlimit="10" x1="179.937" y1="338.831" x2="196.155" y2="337.347"/>
		<line fill="#2E929A" stroke="#F1F1F2" stroke-miterlimit="10" x1="187.774" y1="343.637" x2="187.479" y2="363.65"/>
		
			<line fill="#2E929A" stroke="#F1F1F2" stroke-width="3" stroke-miterlimit="10" x1="179.937" y1="343.637" x2="195.021" y2="344.335"/>
	</g>
	<path fill="#2E929A" stroke="#F1F1F2" stroke-width="2" stroke-miterlimit="10" d="M154.457,155.581
		c3.239,12.424-4.235,25.131-16.692,28.38c-12.457,3.248-25.185-4.193-28.425-16.622c-3.239-12.423,4.235-25.133,16.69-28.381
		C138.492,135.711,151.219,143.15,154.457,155.581z"/>
	<path fill="#2E929A" stroke="#F1F1F2" stroke-miterlimit="10" d="M154.457,155.581c-3.238-12.431-15.965-19.871-28.427-16.623
		c-12.455,3.248-19.93,15.958-16.69,28.381c3.24,12.429,15.968,19.87,28.425,16.622
		C150.221,180.712,157.696,168.005,154.457,155.581z M143.612,173.171c-6.846,6.847-17.669,7.16-24.125,0.703
		c-6.458-6.461-6.147-17.282,0.699-24.126c6.844-6.844,17.665-7.158,24.126-0.7C150.767,155.506,150.454,166.329,143.612,173.171z"
		/>
	<path fill="#2E929A" stroke="#F1F1F2" stroke-miterlimit="10" d="M131.943,139.628c-1.863,0-3.73,0.24-5.553,0.716
		c-5.655,1.474-10.399,5.058-13.357,10.09c-2.959,5.031-3.777,10.908-2.308,16.544c1.007,3.867,3.031,7.252,5.722,9.932l2.026-2.026
		c-3.404-3.404-5.2-8.012-5.057-12.969c0.144-4.93,2.188-9.609,5.757-13.179c3.664-3.663,8.665-5.765,13.718-5.765
		c4.749,0,9.164,1.798,12.431,5.064l2.026-2.027C143.357,142.034,137.879,139.628,131.943,139.628z"/>
	<g>
		<path fill="#2E929A" stroke="#F1F1F2" stroke-miterlimit="10" d="M143.612,173.171c-6.846,6.847-17.669,7.16-24.125,0.703
			c-6.458-6.461-6.147-17.282,0.699-24.126c6.844-6.844,17.665-7.158,24.126-0.7C150.767,155.506,150.454,166.329,143.612,173.171z"
			/>
	</g>
	<path fill="#2E929A" stroke="#F1F1F2" stroke-width="2" stroke-miterlimit="10" d="M154.457,155.581
		c-3.238-12.431-15.965-19.871-28.427-16.623c-12.455,3.248-19.93,15.958-16.69,28.381c3.24,12.429,15.968,19.87,28.425,16.622
		C150.221,180.712,157.696,168.005,154.457,155.581z M143.612,173.171c-6.846,6.847-17.669,7.16-24.125,0.703
		c-6.458-6.461-6.147-17.282,0.699-24.126c6.844-6.844,17.665-7.158,24.126-0.7C150.767,155.506,150.454,166.329,143.612,173.171z"
		/>
	<path fill="#2E929A" stroke="#F1F1F2" stroke-miterlimit="10" d="M110.289,105.321c5.392-15.129,16.884-36.608,21.463-43.977
		c-0.951,0.228-1.887,0.523-2.803,0.872c-14.362,11.451-24.936,25.719-31.845,43.39L110.289,105.321z"/>
	<path fill="#2E929A" stroke="#F1F1F2" stroke-width="3" stroke-miterlimit="10" d="M131.772,60.034
		c-15.807,11.806-27.313,26.761-34.668,45.572l68.745-1.488C158.474,86.005,147.161,71.528,131.772,60.034z"/>
	<path fill="#2E929A" stroke="#F1F1F2" stroke-miterlimit="10" d="M134.348,99.069c0,1.386-1.124,2.508-2.506,2.508
		c-1.386,0-2.51-1.123-2.51-2.508c0-1.384,1.124-2.507,2.51-2.507C133.224,96.562,134.348,97.685,134.348,99.069z"/>
	<circle fill="#2E929A" stroke="#F1F1F2" stroke-miterlimit="10" cx="113.442" cy="99.635" r="2.508"/>
	<circle fill="#2E929A" stroke="#F1F1F2" stroke-miterlimit="10" cx="150.109" cy="98.507" r="2.507"/>
	<line fill="#2E929A" stroke="#F1F1F2" stroke-miterlimit="10" x1="102.07" y1="93.3" x2="161.237" y2="92.806"/>
	<path fill="#2E929A" stroke="#F1F1F2" stroke-miterlimit="10" d="M99.602,266.01l64.199,0.929c0,0-8.556,40.974-11.359,44.392
		c-29.975,0-41.403-0.424-41.403-0.424L99.602,266.01z"/>
	<polygon fill="#2E929A" stroke="#F1F1F2" stroke-miterlimit="10" points="159.417,286.932 104.853,289.715 99.602,266.01 
		117.472,266.27 124.381,310.906 139.865,310.723 142.549,266.601 163.802,266.939 	"/>
	<line fill="#2E929A" stroke="#F1F1F2" stroke-miterlimit="10" x1="99.602" y1="266.01" x2="163.802" y2="266.939"/>
</g>
</svg>
