<?xml version="1.0" encoding="UTF-8" standalone="no"?>
<svg width="512px" height="438px" viewBox="0 0 512 438" version="1.1" xmlns="http://www.w3.org/2000/svg" xmlns:xlink="http://www.w3.org/1999/xlink">
    <!-- Generator: Sketch 3.6.1 (26313) - http://www.bohemiancoding.com/sketch -->
    <title>noun_344499_cc</title>
    <desc>Created with Sketch.</desc>
    <defs></defs>
    <g id="Page-1" stroke="none" stroke-width="1" fill="none" fill-rule="evenodd">
        <g id="noun_344499_cc">
            <g id="Group" fill="#035069" opacity="1">
                <path d="M96.298,169.705 C101.315,253.55 170.887,320 255.988,320 C293.945,320 328.806,306.773 356.238,284.689 C317.23,273.554 274,257.922 229.562,238.617 C180.731,217.404 134.957,193.677 96.298,169.705 L96.298,169.705 Z" id="Shape"></path>
                <path d="M107.381,100.629 C147.292,127.739 199.451,155.759 255.06,179.916 C298.651,198.854 342.173,214.471 380.919,225.08 C387.415,226.859 393.753,228.486 399.907,229.963 C401.592,226.501 403.156,222.969 404.595,219.372 C411.936,201.014 415.981,180.979 415.981,160 C415.981,156.74 415.872,153.507 415.68,150.295 C410.661,66.45 341.09,0 255.988,0 C218.032,0 183.171,13.227 155.74,35.311 C137.444,50.04 122.456,68.709 112.07,90.037 C110.383,93.499 108.819,97.032 107.381,100.629 L107.381,100.629 Z" id="Shape"></path>
                <path d="M429.667,188.531 C428.411,200.093 427.29,202.158 423.776,213.226 C440.654,225.265 454.808,236.932 464.913,247.164 C468.198,250.492 470.788,253.389 472.825,255.866 C471.141,255.95 469.268,255.999 467.194,255.999 C445.308,255.999 413.168,250.499 376.693,240.511 C337.226,229.705 292.963,213.826 248.685,194.591 C189.754,168.991 134.527,139.05 93.175,110.284 C74.094,97.009 58.148,84.058 47.062,72.834 C43.777,69.506 41.187,66.609 39.15,64.132 C40.833,64.048 42.706,63.999 44.782,63.999 C60.09,63.999 80.419,66.693 103.734,71.728 C109.559,61.724 110.713,59.027 118.397,50.319 C92.663,41 66.625,34.522 44.784,32 C20.381,29.182 4.444,37.521 0.8,49.14 C-10.274,84.457 95,162.718 235.936,223.942 C330.498,265.022 417.104,288 467.194,288 C491.759,288 507.532,282.479 511.176,270.859 C517.516,250.643 486.965,224 429.667,188.531 L429.667,188.531 Z" id="Shape"></path>
            </g>

        </g>
    </g>
</svg>