<?xml version="1.0" encoding="UTF-8" standalone="no"?>
<svg width="235px" height="548px" viewBox="0 0 235 548" version="1.1" xmlns="http://www.w3.org/2000/svg" xmlns:xlink="http://www.w3.org/1999/xlink">
    <!-- Generator: Sketch 3.6.1 (26313) - http://www.bohemiancoding.com/sketch -->
    <title>rocket03</title>
    <desc>Created with Sketch.</desc>
    <defs></defs>
    <g id="Page-1" stroke="none" stroke-width="1" fill="none" fill-rule="evenodd">
        <g id="rocket03" transform="translate(117.511760, 329.511760) rotate(-45.000000) translate(-117.511760, -329.511760) translate(-115.488240, 96.511760)">
            <g id="Group" transform="translate(0.000000, 0.000000)">
                <g id="Shape" transform="translate(0.000000, 0.000000)" fill="#E9EFF0">
                    <path d="M291.537843,268.312727 L291.537843,268.312727 C301.534794,262.013122 309.358494,256.147972 313.922319,251.586189 C371.296121,194.238056 406.937422,144.05844 429.104572,103.871302 L429.104572,103.871302 L429.104572,103.871302 C411.935897,101.047341 396.505822,87.3619908 387.595496,78.455652 L387.595496,78.455652 L387.595496,78.455652 L387.595496,78.455652 L387.595496,78.455652 C383.248996,74.1110965 377.815871,68.0287188 373.034721,61.07743 C219.168616,174.904784 150.276589,285.039266 150.276589,285.039266 C150.276589,285.039266 213.952816,176.208151 225.253717,162.740029 C233.729392,152.530323 288.929943,99.9612017 367.601596,51.9538635 C365.211021,47.1748524 363.255096,42.1786136 362.385796,36.965147 L362.385796,36.965147 L362.385796,36.965147 C322.180669,59.12238 271.978593,94.9649629 214.604791,152.095868 C209.823641,156.657651 204.173191,164.477851 197.870766,174.470328 L197.870766,174.470328 L141.366264,159.264384 L0.105009982,300.462438 L90.0775626,240.073116 L117.460513,240.507572 L136.150464,291.556099 C127.240139,310.237688 120.285738,325.226404 117.460513,331.52601 L134.629189,348.687004 C140.931614,345.863043 155.92704,338.911754 174.61699,330.005415 L225.688367,348.687004 L226.123017,376.057704 L165.706665,465.990002 L306.967919,324.791949 L291.537843,268.312727 L291.537843,268.312727 L291.537843,268.312727 Z M287.408668,207.054495 C287.191343,207.271722 286.974018,207.48895 286.539368,207.48895 L260.025718,216.395289 C258.721767,216.829745 257.417817,216.829745 256.113867,216.612517 C254.809917,216.395289 253.723292,215.743606 252.636667,214.657467 C251.550042,213.571328 250.898067,212.485189 250.898067,210.964595 C250.680742,209.661228 250.898067,208.357861 251.332717,207.054495 L260.025718,181.20439 C260.243043,180.769934 260.243043,180.335478 260.460368,180.118251 C260.677693,179.901023 260.895018,179.466567 261.112343,179.24934 C261.764318,178.597656 262.850943,178.163201 263.720243,178.163201 C264.806868,178.163201 265.676168,178.597656 266.328143,179.24934 C267.414768,180.335478 267.849418,181.638845 267.197443,183.159439 L258.721767,208.575089 L283.714143,200.320434 C284.366118,200.103206 285.235418,199.885978 285.887393,200.103206 C286.756693,200.103206 287.408668,200.537661 288.060643,201.189345 C288.712618,201.841028 289.147268,202.927167 289.147268,203.796078 C289.147268,204.882217 288.712618,205.751128 288.060643,206.402811 C287.843318,206.620039 287.625993,206.837267 287.408668,207.054495 L287.408668,207.054495 L287.408668,207.054495 Z M284.583443,158.395473 C285.235418,157.74379 286.322043,157.309334 287.191343,157.309334 C288.277968,157.309334 289.147268,157.74379 289.799243,158.395473 C290.233893,158.829929 290.668543,159.481612 290.885868,160.133295 L298.709569,190.545184 C298.926894,191.196867 298.926894,191.84855 298.709569,192.500234 C298.492244,193.151917 298.057594,193.8036 297.622944,194.238056 C296.970969,194.889739 295.884344,195.324195 295.015044,195.324195 C293.928419,195.324195 293.059118,194.889739 292.407143,194.238056 C291.972493,193.8036 291.537843,193.151917 291.320518,192.500234 L283.496818,162.088345 C283.279493,161.436662 283.279493,160.784979 283.496818,160.133295 C283.714143,159.481612 284.148793,158.829929 284.583443,158.395473 L284.583443,158.395473 L284.583443,158.395473 Z M318.703469,174.470328 C317.616844,174.470328 316.747544,174.035873 316.095569,173.38419 C315.008944,172.298051 314.574294,170.994684 315.226269,169.47409 L323.701944,144.05844 L298.926894,152.530323 C298.274919,152.747551 297.405619,152.964779 296.753644,152.747551 C295.884344,152.747551 295.232369,152.313095 294.580394,151.661412 C293.928419,151.009729 293.493769,149.92359 293.493769,149.054679 C293.493769,147.96854 293.928419,147.099629 294.580394,146.447946 C294.797719,146.230718 295.015044,146.01349 295.232369,146.01349 C295.449694,145.796262 295.667019,145.579034 296.101669,145.579034 L322.615319,136.672696 C323.919269,136.23824 325.223219,136.23824 326.527169,136.455468 C327.83112,136.672696 328.917745,137.324379 330.00437,138.410518 C331.090995,139.496657 331.74297,140.582796 331.74297,142.10339 C331.960295,143.406757 331.74297,144.710123 331.30832,146.01349 L322.615319,171.863595 C322.397994,172.298051 322.397994,172.732506 322.180669,172.949734 C321.963344,173.166962 321.746019,173.601417 321.528694,173.818645 C320.659394,174.035873 319.790094,174.470328 318.703469,174.470328 L318.703469,174.470328 L318.703469,174.470328 Z"></path>
                    <path d="M375.425296,30.0138582 C376.077271,35.010097 377.815871,39.7891081 379.989121,44.3508913 C402.373597,31.3172249 426.496672,18.7180139 451.706373,7.6393974 C428.017947,22.1936583 405.850797,37.3996026 384.987596,52.388319 C389.551421,58.9051523 394.767221,64.1186189 398.244422,67.811491 C405.633472,75.1972354 420.194247,88.8825852 436.058973,90.6204074 L436.058973,90.6204074 C464.963198,33.9239582 465.832499,0.470880829 465.832499,0.0364252798 L465.832499,0.0364252798 L465.832499,0.0364252798 L465.832499,0.0364252798 L465.832499,0.0364252798 C465.615174,0.253653055 432.147123,0.905336379 375.425296,30.0138582 L375.425296,30.0138582 L375.425296,30.0138582 L375.425296,30.0138582 L375.425296,30.0138582 Z"></path>
                </g>
                <path d="M106.376938,361.068987 C101.378463,356.072748 102.030438,347.166409 107.246238,338.694526 C102.247763,339.997893 97.2492878,343.25631 92.9027877,347.600865 C83.3404874,357.158887 79.4286373,388.222459 79.4286373,388.222459 C79.4286373,388.222459 110.506113,384.312359 120.068413,374.754337 C124.197589,370.409781 127.457464,365.413543 128.761414,360.200076 C120.285738,365.196315 111.375413,365.847998 106.376938,361.068987 Z" id="Shape" fill="#FF9A66"></path>
            </g>
        </g>
    </g>
</svg>