<?xml version="1.0" encoding="UTF-8" standalone="no"?>
<svg width="136px" height="337px" viewBox="0 0 136 337" version="1.1" xmlns="http://www.w3.org/2000/svg" xmlns:xlink="http://www.w3.org/1999/xlink">
    <!-- Generator: Sketch 3.6.1 (26313) - http://www.bohemiancoding.com/sketch -->
    <title>ipad_rocket_1</title>
    <desc>Created with Sketch.</desc>
    <defs></defs>
    <g id="Page-1" stroke="none" stroke-width="1" fill="none" fill-rule="evenodd">
        <g id="ipad_rocket_1" transform="translate(1.000000, -1.000000)">
            <g id="Group">
                <g transform="translate(56.000000, 0.000000)">
                    <ellipse id="Oval" stroke="#F1F1F2" fill="#FF9A66" transform="translate(10.818538, 5.413427) rotate(-33.988836) translate(-10.818538, -5.413427) " cx="10.8185385" cy="5.4134269" rx="4.22076322" ry="2.95883401"></ellipse>
                    <path d="M0.673,25.439 L20.41,23.984" id="Shape" stroke="#FFFFFF" stroke-width="3" fill="#E9EFF0"></path>
                    <path d="M4.89,16.604 L16.193,17.432" id="Shape" stroke="#FFFFFF" stroke-width="3" fill="#E9EFF0"></path>
                </g>
                <path d="M66.476,8.716 L66.772,32.034" id="Shape" stroke="#FAFAFA" stroke-width="3" fill="#E9EFF0"></path>
                <path d="M106.394,92.487 L52.697,93.736 L52.697,93.653 C52.687,93.682 52.678,93.71 52.67,93.736 L41.086,94.007 C41.049,93.971 41.011,93.936 40.977,93.901 L106.398,92.485 L106.394,92.487 L106.394,92.487 Z" id="Shape" stroke="#F1F1F2" fill="#E9EFF0" opacity="0.8"></path>
                <g transform="translate(34.000000, 288.000000)" id="Shape" stroke="#005260" fill="#E9EFF0">
                    <g stroke-width="2">
                        <path d="M0.737,27.865 C3.931,28.76 5.505,31.16 8.523,31.913 L57.171,31.913 C60.187,31.16 61.763,28.76 64.956,27.865"></path>
                        <path d="M56.774,6.141 C53.426,3.668 51.65,2.525 48.332,0.734 L16.856,0.734 C13.699,2.525 12.031,3.669 8.922,6.141 C5.876,11.779 3.45,16.534 3.902,23.159 L61.792,23.159 C62.245,16.533 59.818,11.779 56.774,6.141 L56.774,6.141 Z M62.066,23.159 L3.625,23.159 C1.968,25.206 1.333,26.177 0.737,27.864 C22.141,27.862 43.55,27.864 64.957,27.864 C64.36,26.177 63.722,25.206 62.066,23.159 L62.066,23.159 Z"></path>
                        <path d="M16.856,0.734 L48.332,0.734 C51.65,2.525 53.427,3.669 56.774,6.141 L8.922,6.141 C12.031,3.668 13.699,2.525 16.856,0.734 L16.856,0.734 Z"></path>
                        <path d="M3.625,23.159 L62.066,23.159 C63.722,25.206 64.36,26.177 64.957,27.864 C43.55,27.864 22.142,27.862 0.737,27.864 C1.333,26.177 1.968,25.206 3.625,23.159 L3.625,23.159 Z"></path>
                        <path d="M56.774,6.141 C59.818,11.779 62.245,16.534 61.793,23.159 L3.903,23.159 C3.451,16.534 5.877,11.779 8.923,6.141 C24.872,6.141 40.824,6.141 56.774,6.141"></path>
                    </g>
                    <path d="M7.322,22.6 L8.923,6.141"></path>
                    <path d="M50.636,6.141 L52.821,23.352"></path>
                    <path d="M12.55,6.141 L12.152,23.158"></path>
                    <path d="M57.299,23.536 L53.911,6.141"></path>
                    <path d="M16.674,6.141 L16.453,22.6"></path>
                    <path d="M21.854,22.6 L19.65,6.141"></path>
                    <path d="M25.051,6.141 L25.379,22.6"></path>
                    <path d="M30.23,22.6 L29.237,6.141"></path>
                    <path d="M34.198,6.141 L34.42,22.6"></path>
                    <path d="M39.158,22.6 L38.167,6.141"></path>
                    <path d="M42.577,6.141 L44.56,22.6"></path>
                    <path d="M48.528,22.6 L47.222,6.141"></path>
                </g>
                <g transform="translate(14.000000, 246.000000)" id="Shape" stroke="#005260" fill="#E9EFF0">
                    <path d="M38.934,29.896 C16.057,43.587 6.833,55.426 0.837,65.926 L0.837,39.889 C0.837,39.889 4.266,25.933 21.997,0.664" stroke-width="3"></path>
                    <path d="M0.838,39.889 C0.838,39.889 17.211,12.345 22.563,6.486"></path>
                </g>
                <g transform="translate(80.000000, 246.000000)" id="Shape" stroke="#005260" fill="#E9EFF0">
                    <path d="M0.507,29.896 C23.385,43.587 32.608,55.426 38.603,65.926 L38.603,39.889 C38.603,39.889 35.176,25.933 17.444,0.664" stroke-width="3"></path>
                    <path d="M38.602,39.889 C38.602,39.889 22.231,12.345 16.878,6.486"></path>
                </g>
                <path d="M100.849,76.118 L87.843,76.437 C98.041,107.693 99.883,147.373 93.181,196.476 C91.508,208.719 89.968,219.545 88.659,228.281 L100.776,228.751 C102.86,217.593 105.066,204.448 107.299,189.081 C114.281,141.038 112.302,104.202 100.849,76.118 L100.849,76.118 Z" id="Shape" stroke="#005260" fill="#E9EFF0"></path>
                <path d="M45.255,77.41 L32.584,77.704 L32.109,77.704 C21.218,105.586 19.441,141.935 26.292,189.079 C28.35,203.242 30.386,215.518 32.322,226.09 L44.518,226.567 C43.253,218.1 41.823,208.134 40.234,196.475 C33.598,147.881 35.336,108.515 45.255,77.41 L45.255,77.41 Z" id="Shape" stroke="#005260" fill="#E9EFF0"></path>
                <path d="M100.849,76.118 L32.583,77.704 L32.108,77.704 C21.217,105.586 19.44,141.935 26.291,189.079 C36.45,258.985 46.038,282.905 46.038,282.905 L87.552,282.905 C87.552,282.905 97.138,258.985 107.299,189.079 C114.281,141.038 112.302,104.202 100.849,76.118 L100.849,76.118 Z" id="Shape" stroke="#005260" stroke-width="3" fill="#E9EFF0"></path>
                <path d="M88.709,227.829 C90.018,219.094 91.509,208.719 93.182,196.475 C99.884,147.372 98.042,107.693 87.844,76.436" id="Shape" stroke="#005260" fill="#E9EFF0"></path>
                <path d="M45.283,77.327 C35.338,108.444 33.595,147.84 40.234,196.475 C41.866,208.451 43.331,218.635 44.619,227.248" id="Shape" stroke="#005260" fill="#E9EFF0"></path>
                <path d="M83.784,282.906 L50.726,282.898" id="Shape" stroke="#F1F1F2" fill="#E9EFF0"></path>
                <path d="M34.602,238.01 L98.802,238.939" id="Shape" stroke="#F1F1F2" fill="#E9EFF0"></path>
                <path d="M100.776,228.75 L32.584,226.105" id="Shape" stroke="#F1F1F2" fill="#E9EFF0"></path>
                <path d="M88.709,227.829 C90.018,219.094 91.509,208.719 93.182,196.475 C99.884,147.372 98.042,107.693 87.844,76.436" id="Shape" stroke="#005260" fill="#E9EFF0"></path>
                <path d="M45.283,77.327 C35.338,108.444 33.595,147.84 40.234,196.475 C41.866,208.451 43.331,218.635 44.619,227.248" id="Shape" stroke="#005260" fill="#E9EFF0"></path>
                <path d="M83.784,282.906 L50.726,282.898" id="Shape" stroke="#005260" fill="#E9EFF0"></path>
                <path d="M89.605,286.561 C89.605,287.939 88.491,289.053 87.112,289.053 L46.479,289.053 C45.101,289.053 43.985,287.939 43.985,286.561 L43.985,285.214 C43.985,283.84 45.101,282.723 46.479,282.723 L87.112,282.723 C88.491,282.723 89.605,283.84 89.605,285.214 L89.605,286.561 L89.605,286.561 Z" id="Shape" stroke="#005260" stroke-width="2" fill="#E9EFF0"></path>
                <path d="M100.776,228.75 L32.584,226.105" id="Shape" stroke="#005260" fill="#E9EFF0"></path>
                <path d="M66.772,32.034 C50.965,43.84 39.459,58.795 32.104,77.606 L100.849,76.118 C93.474,58.005 82.161,43.528 66.772,32.034 L66.772,32.034 Z" id="Shape" stroke="#005260" stroke-width="3" fill="#E9EFF0"></path>
                <g transform="translate(0.000000, 236.000000)" id="Shape" stroke="#005260" fill="#E9EFF0">
                    <path d="M10.669,0.686 C2.386,12.249 -1.002,31.466 1.421,62.628 C3.567,90.213 4.892,99.649 4.892,99.649 L16.444,99.649 C16.444,99.649 17.771,90.212 19.915,62.628 C22.338,31.466 18.952,12.248 10.669,0.686 L10.669,0.686 Z" stroke-width="3"></path>
                    <path d="M18.417,80.618 L2.832,79.637 L4.863,96.825 L16.684,97.345 L18.417,80.618"></path>
                    <path d="M6.116,79.469 C6.874,94.197 7.319,99.65 7.319,99.65"></path>
                    <path d="M10.669,0.686 C5.867,12.249 3.903,31.466 5.307,62.628 C5.608,69.246 5.877,74.819 6.117,79.469"></path>
                    <path d="M2.832,74.831 L19.051,73.347" stroke-width="3"></path>
                    <path d="M10.669,79.637 L10.373,99.65"></path>
                    <path d="M2.832,79.637 L17.915,80.335" stroke-width="3"></path>
                </g>
                <g transform="translate(112.000000, 236.000000)" id="Shape" stroke="#005260" fill="#E9EFF0">
                    <path d="M10.774,0.686 C2.49,12.249 -0.896,31.466 1.525,62.628 C3.671,90.213 4.998,99.649 4.998,99.649 L16.551,99.649 C16.551,99.649 17.878,90.212 20.02,62.628 C22.443,31.466 19.056,12.248 10.774,0.686 L10.774,0.686 Z" stroke-width="3"></path>
                    <path d="M18.524,80.618 L2.937,79.637 L4.969,96.825 L16.789,97.345 L18.524,80.618"></path>
                    <path d="M6.222,79.469 C6.98,94.197 7.424,99.65 7.424,99.65"></path>
                    <path d="M10.774,0.686 C5.971,12.249 4.007,31.466 5.415,62.628 C5.712,69.246 5.983,74.819 6.223,79.469"></path>
                    <path d="M2.937,74.831 L19.155,73.347" stroke-width="3"></path>
                    <path d="M10.774,79.637 L10.479,99.65"></path>
                    <path d="M2.937,79.637 L18.021,80.335" stroke-width="3"></path>
                </g>
                <path d="M89.457,127.581 C92.696,140.005 85.222,152.712 72.765,155.961 C60.308,159.209 47.58,151.768 44.34,139.339 C41.101,126.916 48.575,114.206 61.03,110.958 C73.492,107.711 86.219,115.15 89.457,127.581 L89.457,127.581 Z" id="Shape" stroke="#005260" stroke-width="2" fill="#E9EFF0"></path>
                <path d="M89.457,127.581 C86.219,115.15 73.492,107.71 61.03,110.958 C48.575,114.206 41.1,126.916 44.34,139.339 C47.58,151.768 60.308,159.209 72.765,155.961 C85.221,152.712 92.696,140.005 89.457,127.581 L89.457,127.581 Z M78.612,145.171 C71.766,152.018 60.943,152.331 54.487,145.874 C48.029,139.413 48.34,128.592 55.186,121.748 C62.03,114.904 72.851,114.59 79.312,121.048 C85.767,127.506 85.454,138.329 78.612,145.171 L78.612,145.171 Z" id="Shape" stroke="#005260" fill="#E9EFF0"></path>
                <path d="M66.943,111.628 C65.08,111.628 63.213,111.868 61.39,112.344 C55.735,113.818 50.991,117.402 48.033,122.434 C45.074,127.465 44.256,133.342 45.725,138.978 C46.732,142.845 48.756,146.23 51.447,148.91 L53.473,146.884 C50.069,143.48 48.273,138.872 48.416,133.915 C48.56,128.985 50.604,124.306 54.173,120.736 C57.837,117.073 62.838,114.971 67.891,114.971 C72.64,114.971 77.055,116.769 80.322,120.035 L82.348,118.008 C78.357,114.034 72.879,111.628 66.943,111.628 L66.943,111.628 Z" id="Shape" stroke="#005260" fill="#E9EFF0"></path>
                <path d="M78.612,145.171 C71.766,152.018 60.943,152.331 54.487,145.874 C48.029,139.413 48.34,128.592 55.186,121.748 C62.03,114.904 72.851,114.59 79.312,121.048 C85.767,127.506 85.454,138.329 78.612,145.171 L78.612,145.171 Z" id="Shape" stroke="#005260" fill="#E9EFF0"></path>
                <path d="M89.457,127.581 C86.219,115.15 73.492,107.71 61.03,110.958 C48.575,114.206 41.1,126.916 44.34,139.339 C47.58,151.768 60.308,159.209 72.765,155.961 C85.221,152.712 92.696,140.005 89.457,127.581 L89.457,127.581 Z M78.612,145.171 C71.766,152.018 60.943,152.331 54.487,145.874 C48.029,139.413 48.34,128.592 55.186,121.748 C62.03,114.904 72.851,114.59 79.312,121.048 C85.767,127.506 85.454,138.329 78.612,145.171 L78.612,145.171 Z" id="Shape" stroke="#005260" stroke-width="2" fill="#E9EFF0"></path>
                <path d="M45.289,77.321 C50.681,62.192 62.173,40.713 66.752,33.344 C65.801,33.572 64.865,33.867 63.949,34.216 C49.587,45.667 39.013,59.935 32.104,77.606 L45.289,77.321 L45.289,77.321 Z" id="Shape" stroke="#005260" fill="#E9EFF0"></path>
                <path d="M66.772,32.034 C50.965,43.84 39.459,58.795 32.104,77.606 L100.849,76.118 C93.474,58.005 82.161,43.528 66.772,32.034 L66.772,32.034 Z" id="Shape" stroke="#005260" stroke-width="3" fill="#E9EFF0"></path>
                <path d="M69.348,71.069 C69.348,72.455 68.224,73.577 66.842,73.577 C65.456,73.577 64.332,72.454 64.332,71.069 C64.332,69.685 65.456,68.562 66.842,68.562 C68.224,68.562 69.348,69.685 69.348,71.069 L69.348,71.069 Z" id="Shape" stroke="#005260" fill="#E9EFF0"></path>
                <circle id="Oval" stroke="#005260" fill="#E9EFF0" cx="48.442" cy="71.635" r="2.508"></circle>
                <circle id="Oval" stroke="#005260" fill="#E9EFF0" cx="85.109" cy="70.507" r="2.507"></circle>
                <path d="M37.07,65.3 L96.237,64.806" id="Shape" stroke="#005260" fill="#E9EFF0"></path>
                <path d="M34.602,238.01 L98.801,238.939 C98.801,238.939 90.245,279.913 87.442,283.331 C57.467,283.331 46.039,282.907 46.039,282.907 L34.602,238.01 L34.602,238.01 Z" id="Shape" stroke="#005260" fill="#E9EFF0"></path>
                <path d="M94.417,258.932 L39.853,261.715 L34.602,238.01 L52.472,238.27 L59.381,282.906 L74.865,282.723 L77.549,238.601 L98.802,238.939 L94.417,258.932 Z" id="Shape" stroke="#005260" fill="#E9EFF0"></path>
                <path d="M34.602,238.01 L98.802,238.939" id="Shape" stroke="#005260" fill="#E9EFF0"></path>
            </g>
        </g>
    </g>
</svg>