<?xml version="1.0" encoding="UTF-8" standalone="no"?>
<svg width="641px" height="738px" viewBox="0 0 641 738" version="1.1" xmlns="http://www.w3.org/2000/svg" xmlns:xlink="http://www.w3.org/1999/xlink">
    <!-- Generator: Sketch 3.6.1 (26313) - http://www.bohemiancoding.com/sketch -->
    <title>r-is-for-rocket</title>
    <desc>Created with Sketch.</desc>
    <defs></defs>
    <g id="Page-1" stroke="none" stroke-width="1" fill="none" fill-rule="evenodd">
        <g id="r-is-for-rocket" transform="translate(-114.000000, -98.000000)">
            <g id="layer1">
                <g id="g4027" transform="translate(433.910028, 466.760827) rotate(41.062932) translate(-433.910028, -466.760827) translate(284.410028, -21.739173)">
                    <g id="g3191" transform="translate(0.983670, 0.104270)" fill-opacity="0.97255" fill="#E9EFF0">
                        <path d="M148.233967,0.429200284 L148.233967,3.53145839 C84.8979115,181.877134 70.1555539,305.725074 70.1555539,479.519602 C70.1555539,500.734653 70.6690934,520.858977 71.6461629,539.873233 C-5.70770259,569.540784 -9.31626042,698.389829 11.2134555,790.237916 C29.07962,754.148477 43.445522,715.119486 102.910017,713.888227 C108.677392,728.192754 115.05019,740.037341 121.886209,749.423277 L141.789359,749.423277 C139.450823,704.044598 138.767659,660.530213 138.767659,624.605801 C139.317387,589.721835 137.239147,546.952652 148.920354,547.692697 C161.686836,548.501254 159.113273,590.46188 159.113273,624.605801 C160.001514,661.685405 159.332197,704.722757 156.776541,749.423277 L175.671512,749.423277 C182.50405,740.039791 188.883553,728.186308 194.647705,713.888227 C254.428061,714.961511 268.804277,754.07112 286.70654,790.237916 C307.272355,698.231248 303.618674,569.126926 225.870303,539.757198 C226.841739,520.785488 227.360912,500.684372 227.360912,479.52347 C227.360912,305.728942 212.658521,181.881002 149.322465,3.53532622 L149.322465,0.433068115 C149.13688,0.952865888 148.943199,1.48550486 148.758427,2.00443882 C148.573667,1.48556932 148.420274,0.952930352 148.234676,0.433068115 L148.233967,0.429200284 Z M148.95916,218.922959 C165.453582,218.922959 178.933783,232.086476 179.336023,248.576328 L179.336023,249.301546 C179.336023,266.085353 165.74237,279.679489 148.95916,279.679489 C132.175949,279.679489 118.582297,266.085353 118.582297,249.301546 C118.582297,232.517739 132.175949,218.923603 148.95916,218.923603 L148.95916,218.922959 Z" id="path2985"></path>
                        <g id="g3080" transform="translate(140.871028, 558.391568)">
                            <path d="M8.21981926,0.445368461 C17.5987254,1.11080073 15.6911578,35.6677993 15.6911578,63.7684778 C16.7827467,114.815989 14.7003155,179.512491 8.21981926,241.563711 C2.10313465,179.400631 0.748480733,112.976514 0.748480733,63.7684778 C1.15234477,35.0587838 -0.361733619,-0.163647016 8.21981926,0.445368461 L8.21981926,0.445368461 Z" id="rect3052-0"></path>
                        </g>
                    </g>
                    <g id="g3187" transform="translate(150.927873, 875.606858) scale(1, -1) translate(-150.927873, -875.606858) translate(118.427873, 774.606858)">
                        <path d="M32.1074333,0.292999782 L32.1074333,0.678525811 C13.3770367,21.0959843 0.494298888,63.5994579 0.494298888,112.77099 C0.494298888,138.630534 4.0773778,181.115502 10.1805633,201.05645 C7.99555594,170.020063 9.250181,169.076295 9.21674819,161.973364 C8.22270787,130.017882 16.9491666,83.1240381 32.616636,70.7733263 C47.2908362,82.9066015 55.2516402,129.262251 55.2393034,161.973364 C54.9612466,172.466611 55.1316954,171.848073 54.3718698,201.05645 C60.4753637,181.11396 64.0581342,138.628992 64.0581342,112.77099 C64.0581342,63.6040842 51.1727749,21.0990685 32.4449998,0.678525811 L32.4449998,0.292999782 C32.3845339,0.357768155 32.3125794,0.420531792 32.2522368,0.485762796 C32.1983249,0.427471261 32.1616691,0.350828686 32.1076646,0.292999782 L32.1074333,0.292999782 Z" id="path3084" fill-opacity="0.97255" fill="#FF9A66"></path>
                        <path d="M32.340291,91.3079847 L32.340291,91.5187286 C22.1021075,102.679245 15.0594723,125.912277 15.0594723,152.789609 C15.0594723,166.925153 17.0180987,190.147082 20.3542867,201.048216 C19.1599425,184.083528 19.8457008,183.566923 19.8274269,179.685447 C19.2840819,162.218034 24.0540258,136.585179 32.618101,129.833847 C40.6393556,136.466129 44.990865,161.80475 44.9839255,179.685447 C44.8318586,185.421149 44.9250326,185.08312 44.5097748,201.048216 C47.846117,190.147698 49.8045892,166.924536 49.8045892,152.789609 C49.8045892,125.913819 42.7611829,102.678936 32.5237705,91.5187286 L32.5237705,91.3079847 C32.4906924,91.3434531 32.4513687,91.377842 32.4182906,91.4134646 C32.3888518,91.381543 32.3688816,91.3395978 32.3392269,91.3079847 L32.340291,91.3079847 Z" id="path3084-5" fill="#DED9B2"></path>
                    </g>
                    <path d="M70.5360985,547.779948 C-5.42809722,590.867583 7.51624298,722.799289 10.6878642,736.568767 C8.43162959,555.464039 86.1879202,553.220697 70.5360985,547.779948 L70.5360985,547.779948 Z" id="path3202" fill="#B3B3B3"></path>
                    <path d="M149.736379,26.5381853 C85.6812344,222.301992 77.0366327,374.655845 80.6685257,532.115234 C87.2692368,537.321205 97.5296892,536.471056 98.1653027,586.449231 L103.690757,702.484153 C103.454948,483.461791 86.7870472,304.058909 149.735992,26.5291604 L149.736379,26.5381853 Z" id="path3984" fill="#FFFFFF"></path>
                    <path d="M168.766106,235.787828 C168.717501,254.037543 153.918794,268.804921 135.658765,268.804921 C135.207492,268.804921 134.753731,268.793317 134.306829,268.774881 C138.229325,271.471274 142.977087,273.071009 148.096935,273.071009 C161.560854,273.071009 172.491343,262.139488 172.491343,248.676601 L172.461303,248.075746 C172.350683,243.552705 171.007385,239.370935 168.765978,235.788163 L168.766106,235.787828 Z" id="path3986" fill-opacity="0.97255" fill="#B3B3B3"></path>
                    <path d="M149.852414,537.904087 C132.86748,537.790631 131.035418,545.329033 130.374019,573.012387 L133.565881,647.990286 C132.526131,561.983912 133.245999,542.655073 149.852027,537.904087 L149.852414,537.904087 Z" id="path3984-5" fill="#FFFFFF"></path>
                </g>
            </g>
        </g>
    </g>
</svg>