<?xml version="1.0" encoding="UTF-8" standalone="no"?>
<svg width="326px" height="762px" viewBox="0 0 326 762" version="1.1" xmlns="http://www.w3.org/2000/svg" xmlns:xlink="http://www.w3.org/1999/xlink">
    <!-- Generator: Sketch 3.6.1 (26313) - http://www.bohemiancoding.com/sketch -->
    <title>rocket03</title>
    <desc>Created with Sketch.</desc>
    <defs></defs>
    <g id="Page-1" stroke="none" stroke-width="1" fill="none" fill-rule="evenodd">
        <g id="rocket03" transform="translate(163.205194, 458.205194) rotate(-45.000000) translate(-163.205194, -458.205194) translate(-160.794806, 134.205194)">
            <g id="Group" transform="translate(0.000000, 0.000000)">
                <g id="Shape" transform="translate(0.000000, 0.000000)" fill="#E9EFF0">
                    <path d="M405.036381,372.769499 L405.036381,372.769499 C418.925242,364.017396 429.794785,355.868886 436.135352,349.531155 C515.845337,269.856833 565.362145,200.141801 596.159185,144.309417 L596.159185,144.309417 L596.159185,144.309417 C572.306576,140.38606 550.869421,121.372869 538.490219,108.999206 L538.490219,108.999206 L538.490219,108.999206 L538.490219,108.999206 L538.490219,108.999206 C532.451583,102.963272 524.903289,94.5129652 518.260791,84.8554716 C304.493105,242.996929 208.780737,396.007843 208.780737,396.007843 C208.780737,396.007843 297.246743,244.807709 312.947194,226.096315 C324.722533,211.911872 401.4132,138.877076 510.712497,72.1800113 C507.391247,65.5404844 504.673862,58.5991609 503.466134,51.3560407 L503.466134,51.3560407 L503.466134,51.3560407 C447.608759,82.1393016 377.862523,131.935753 298.152538,211.308278 C291.510039,217.646009 283.659814,228.510689 274.903793,242.393336 L274.903793,242.393336 L196.401535,221.267569 L0.145891396,417.435407 L125.14564,333.535932 L163.189042,334.139525 L189.155173,405.061744 C176.775971,431.016258 167.114154,451.840228 163.189042,460.592332 L187.041651,484.434269 C195.797672,480.510912 216.630963,470.853419 242.597094,458.479755 L313.551058,484.434269 L314.154921,522.46065 L230.217892,647.404474 L426.473536,451.236635 L405.036381,372.769499 L405.036381,372.769499 L405.036381,372.769499 Z M399.299677,287.662837 C398.997746,287.964634 398.695814,288.26643 398.09195,288.26643 L361.256276,300.640094 C359.444685,301.243688 357.633095,301.243688 355.821504,300.941891 C354.009914,300.640094 352.500255,299.734704 350.990596,298.225721 C349.480937,296.716737 348.575142,295.207754 348.575142,293.095177 C348.27321,291.284397 348.575142,289.473617 349.179005,287.662837 L361.256276,251.749033 C361.558208,251.145439 361.558208,250.541846 361.860139,250.240049 C362.162071,249.938253 362.464003,249.334659 362.765935,249.032863 C363.67173,248.127473 365.181389,247.523879 366.389116,247.523879 C367.898774,247.523879 369.106501,248.127473 370.012297,249.032863 C371.521956,250.541846 372.125819,252.352626 371.220024,254.465203 L359.444685,289.775414 L394.166838,278.30714 C395.072633,278.005344 396.28036,277.703547 397.186155,278.005344 C398.393882,278.005344 399.299677,278.608937 400.205473,279.514327 C401.111268,280.419717 401.715132,281.9287 401.715132,283.135887 C401.715132,284.64487 401.111268,285.852057 400.205473,286.757447 C399.903541,287.059244 399.601609,287.36104 399.299677,287.662837 L399.299677,287.662837 L399.299677,287.662837 Z M395.374565,220.060382 C396.28036,219.154992 397.790019,218.551399 398.997746,218.551399 C400.507404,218.551399 401.715132,219.154992 402.620927,220.060382 C403.22479,220.663975 403.828654,221.569365 404.130586,222.474755 L415.000129,264.72629 C415.302061,265.63168 415.302061,266.53707 415.000129,267.44246 C414.698197,268.34785 414.094334,269.25324 413.49047,269.856833 C412.584675,270.762223 411.075016,271.365817 409.867289,271.365817 C408.35763,271.365817 407.149903,270.762223 406.244108,269.856833 C405.640244,269.25324 405.036381,268.34785 404.734449,267.44246 L393.864906,225.190925 C393.562974,224.285535 393.562974,223.380145 393.864906,222.474755 C394.166838,221.569365 394.770701,220.663975 395.374565,220.060382 L395.374565,220.060382 L395.374565,220.060382 Z M442.777851,242.393336 C441.268192,242.393336 440.060465,241.789743 439.15467,240.884353 C437.645011,239.375369 437.041147,237.564589 437.946943,235.452012 L449.722281,200.141801 L415.302061,211.911872 C414.396265,212.213668 413.188538,212.515465 412.282743,212.213668 C411.075016,212.213668 410.169221,211.610075 409.263426,210.704685 C408.35763,209.799295 407.753767,208.290312 407.753767,207.083125 C407.753767,205.574142 408.35763,204.366955 409.263426,203.461565 C409.565357,203.159768 409.867289,202.857972 410.169221,202.857972 C410.471153,202.556175 410.773084,202.254378 411.376948,202.254378 L448.212622,189.880714 C450.024213,189.277121 451.835804,189.277121 453.647394,189.578918 C455.458985,189.880714 456.968644,190.786105 458.478302,192.295088 C459.987961,193.804071 460.893756,195.313055 460.893756,197.425631 C461.195688,199.236411 460.893756,201.047191 460.289893,202.857972 L448.212622,238.771776 C447.910691,239.375369 447.910691,239.978963 447.608759,240.280759 C447.306827,240.582556 447.004895,241.186149 446.702964,241.487946 C445.495237,241.789743 444.28751,242.393336 442.777851,242.393336 L442.777851,242.393336 L442.777851,242.393336 Z"></path>
                    <path d="M521.58204,41.6985471 C522.487835,48.6398707 524.903289,55.2793975 527.922607,61.6171277 C559.021578,43.5093272 592.536004,26.00512 627.560088,10.6134896 C594.649526,30.8338668 563.852486,51.9596341 534.867037,72.7836046 C541.207604,81.8375049 548.453967,89.0806251 553.284875,94.2111686 C563.550555,104.472256 583.779982,123.485446 605.821001,125.899819 L605.821001,125.899819 C645.977925,47.1308873 647.185652,0.654199348 647.185652,0.0506059979 L647.185652,0.0506059979 L647.185652,0.0506059979 L647.185652,0.0506059979 L647.185652,0.0506059979 C646.88372,0.352402673 600.386229,1.2577927 521.58204,41.6985471 L521.58204,41.6985471 L521.58204,41.6985471 L521.58204,41.6985471 L521.58204,41.6985471 Z"></path>
                </g>
                <path d="M147.790522,501.63668 C140.846091,494.695356 141.751887,482.321692 148.998249,470.551622 C142.053818,472.362402 135.109388,476.889352 129.070753,482.925286 C115.785755,496.204339 110.350984,539.361264 110.350984,539.361264 C110.350984,539.361264 153.527225,533.928924 166.812223,520.64987 C172.548926,514.613937 177.077902,507.672613 178.889493,500.429493 C167.114154,507.370816 154.734952,508.276206 147.790522,501.63668 Z" id="Shape" fill="#FF9A66"></path>
            </g>
        </g>
    </g>
</svg>