<?xml version="1.0" encoding="UTF-8" standalone="no"?>
<svg width="131px" height="506px" viewBox="0 0 131 506" version="1.1" xmlns="http://www.w3.org/2000/svg" xmlns:xlink="http://www.w3.org/1999/xlink">
    <!-- Generator: Sketch 3.6.1 (26313) - http://www.bohemiancoding.com/sketch -->
    <title>ROCKET</title>
    <desc>Created with Sketch.</desc>
    <defs></defs>
    <g id="Page-1" stroke="none" stroke-width="1" fill="none" fill-rule="evenodd">
        <g id="SCENE" transform="translate(-331.000000, 0.000000)">
            <g id="ROCKET" transform="translate(213.888889, 0.000000)">
                <path d="M227.058439,192.978941 C258.932774,161.118868 278.733496,133.241303 291.04858,110.915115 C310.585804,73.142617 311.538359,53.9868218 311.538359,53.9868218 C311.538359,53.9868218 289.62004,55.832082 254.768267,74.5307034 C232.432086,86.8402773 204.542043,106.752823 172.667709,138.492215 C170.011515,141.026539 166.872376,145.371095 163.371028,150.922471 L131.979638,142.474724 L53.5011641,220.132413 L102.700241,186.58279 L118.698666,186.824154 L129.474809,215.577284 C124.524628,225.955945 120.661072,234.283009 119.091503,237.78279 L127.843982,246.531002 C131.345329,244.962134 139.283284,241.493144 149.66659,236.545178 L178.825251,246.923839 L179.066723,262.915457 L145.502083,312.092171 L222.802047,234.041645 L214.622619,202.271463 C220.176481,198.771682 224.522981,195.513265 227.058439,192.978941 Z" id="Shape" transform="translate(182.519762, 183.039496) rotate(-45.000000) translate(-182.519762, -183.039496) "></path>
                <path d="M157.376653,27.1220479 C157.738861,29.8977362 182.248292,59.8268965 191.062029,60.7923532 L191.062029,60.7923532 C207.119932,29.2943257 207.602877,10.7092828 207.602877,10.4679186 L207.602877,10.4679186 L207.602877,10.4679186 L207.602877,10.4679186 L207.602877,10.4679186 C207.48214,10.5886007 188.888779,10.9506469 157.376653,27.1220479 L157.376653,27.1220479 L157.376653,27.1220479 L157.376653,27.1220479 L157.376653,27.1220479 L157.376653,27.1220479 L157.376653,27.1220479 Z" id="Shape" transform="translate(182.489765, 35.630136) rotate(-45.000000) translate(-182.489765, -35.630136) "></path>
                <path d="M225.279474,206.899949 L225.279474,206.899949 C230.833336,203.400168 235.179836,200.141752 237.715294,197.607428 C269.589629,165.747354 289.390351,137.869789 301.705435,115.543602 L301.705435,115.543602 L301.705435,115.543602 C292.167282,113.974734 283.595018,106.371762 278.644837,101.423796 L278.644837,101.423796 L278.644837,101.423796 L278.644837,101.423796 L278.644837,101.423796 C276.230115,99.0101538 273.211712,95.6310554 270.555517,91.7692282 C185.074348,155.006647 146.801,216.19247 146.801,216.19247 C146.801,216.19247 182.176681,155.73074 188.45496,148.24845 C193.163668,142.576391 223.830641,113.371323 267.537115,86.7005799 C266.209017,84.0455738 265.122392,81.2698854 264.639448,78.3735154 L264.639448,78.3735154 L264.639448,78.3735154 C242.303266,90.6830893 214.413224,110.595635 182.53889,142.335027 C179.882695,144.869351 176.743556,149.213907 173.242209,154.765283 L173.242209,154.765283 L141.850819,146.317536 L63.3723447,224.760899 L113.357096,191.211276 L128.569846,191.45264 L138.953152,219.812933 C134.002972,230.191594 130.139416,238.518658 128.569846,242.018439 L138.108,251.552325 C141.609347,249.983458 149.940139,246.12163 160.323445,241.173664 L188.696432,251.552325 L188.937904,266.758269 L155.373264,316.720657 L233.851739,238.277294 L225.279474,206.899949 L225.279474,206.899949 L225.279474,206.899949 L225.279474,206.899949 L225.279474,206.899949 Z M222.985488,172.867598 C222.864752,172.988279 222.744016,173.108962 222.502544,173.108962 L207.772738,178.056928 C207.048321,178.298292 206.323904,178.298292 205.599487,178.17761 C204.875071,178.056928 204.27139,177.694882 203.66771,177.091471 C203.064029,176.48806 202.701821,175.88465 202.701821,175.039875 C202.581085,174.315783 202.701821,173.59169 202.943293,172.867598 L207.772738,158.506428 C207.893474,158.265064 207.893474,158.023699 208.01421,157.903018 C208.134946,157.782335 208.255682,157.540971 208.376419,157.420289 C208.738627,157.058243 209.342307,156.816879 209.825252,156.816879 C210.428932,156.816879 210.911877,157.058243 211.274085,157.420289 C211.877766,158.023699 212.119238,158.747792 211.75703,159.592567 L207.048321,173.712372 L220.932974,169.126453 C221.295182,169.00577 221.778127,168.885088 222.140335,169.00577 C222.62328,169.00577 222.985488,169.247134 223.347696,169.609181 C223.709905,169.971227 223.951377,170.574638 223.951377,171.057366 C223.951377,171.660777 223.709905,172.143505 223.347696,172.505551 C223.22696,172.626233 223.106224,172.746915 222.985488,172.867598 L222.985488,172.867598 L222.985488,172.867598 L222.985488,172.867598 L222.985488,172.867598 Z M221.415919,145.834808 C221.778127,145.472762 222.381807,145.231397 222.864752,145.231397 C223.468432,145.231397 223.951377,145.472762 224.313585,145.834808 C224.555057,146.076172 224.79653,146.438218 224.917266,146.800264 L229.263766,163.695758 C229.384502,164.057804 229.384502,164.41985 229.263766,164.781897 C229.14303,165.143943 228.901558,165.505989 228.660086,165.747354 C228.297877,166.1094 227.694197,166.350764 227.211252,166.350764 C226.607572,166.350764 226.124627,166.1094 225.762419,165.747354 C225.520946,165.505989 225.279474,165.143943 225.158738,164.781897 L220.812238,147.886403 C220.691502,147.524357 220.691502,147.162311 220.812238,146.800264 C220.932974,146.438218 221.174446,146.076172 221.415919,145.834808 L221.415919,145.834808 L221.415919,145.834808 L221.415919,145.834808 L221.415919,145.834808 Z M240.371489,154.765283 C239.767808,154.765283 239.284864,154.523919 238.922655,154.161873 C238.318975,153.558462 238.077502,152.834369 238.439711,151.989595 L243.148419,137.869789 L229.384502,142.576391 C229.022294,142.697073 228.53935,142.817755 228.177141,142.697073 C227.694197,142.697073 227.331989,142.455709 226.96978,142.093663 C226.607572,141.731617 226.3661,141.128206 226.3661,140.645478 C226.3661,140.042067 226.607572,139.559339 226.96978,139.197293 C227.090516,139.07661 227.211252,138.955928 227.331989,138.955928 C227.452725,138.835246 227.573461,138.714564 227.814933,138.714564 L242.544739,133.766598 C243.269155,133.525234 243.993572,133.525234 244.717989,133.645916 C245.442406,133.766598 246.046086,134.128644 246.649767,134.732055 C247.253447,135.335465 247.615656,135.938876 247.615656,136.78365 C247.736392,137.507743 247.615656,138.231835 247.374184,138.955928 L242.544739,153.317098 C242.424002,153.558462 242.424002,153.799826 242.303266,153.920508 C242.18253,154.04119 242.061794,154.282554 241.941058,154.403237 C241.458114,154.523919 240.975169,154.765283 240.371489,154.765283 L240.371489,154.765283 L240.371489,154.765283 L240.371489,154.765283 L240.371489,154.765283 Z" id="Shape" fill="#E9EFF0" transform="translate(182.538890, 197.547086) rotate(-45.000000) translate(-182.538890, -197.547086) "></path>
                <path d="M157.376653,27.1220479 C157.738861,29.8977362 158.70475,32.5527423 159.912111,35.0870663 C172.347931,27.8461406 185.749639,20.8465789 199.755029,14.6917919 C186.594792,22.7774924 174.279709,31.2252393 162.689042,39.5523039 C165.2245,43.1727669 168.122167,46.0691372 170.053945,48.1207328 C174.158973,52.2239242 182.248292,59.8268965 191.062029,60.7923532 L191.062029,60.7923532 C207.119932,29.2943257 207.602877,10.7092828 207.602877,10.4679186 L207.602877,10.4679186 L207.602877,10.4679186 L207.602877,10.4679186 L207.602877,10.4679186 C207.48214,10.5886007 188.888779,10.9506469 157.376653,27.1220479 L157.376653,27.1220479 L157.376653,27.1220479 L157.376653,27.1220479 L157.376653,27.1220479 L157.376653,27.1220479 L157.376653,27.1220479 Z" id="Shape" fill="#E9EFF0" transform="translate(182.489765, 35.630136) rotate(-45.000000) translate(-182.489765, -35.630136) "></path>
                <path d="M256.551019,299.936674 C253.774088,300.660767 241.252453,312.163832 237.582997,315.884079 C222.703691,330.969341 127.650162,435.454321 100.017292,471.766797 C134.714017,442.149793 233.807171,349.389991 252.675011,330.969342 C256.068076,327.254156 267.779478,314.780573 268.503894,311.884202 C263.795186,314.659891 258.845005,315.021937 256.068074,312.366931 C253.291144,309.591242 253.653352,304.643276 256.551019,299.936674 L256.551019,299.936674 Z" id="Shape" fill-opacity="0.258123868" fill="#FF9A66" transform="translate(184.260593, 385.851736) rotate(-45.000000) translate(-184.260593, -385.851736) "></path>
                <path d="M184.479783,274.285042 C182.284482,274.869838 180.089181,276.331827 178.180223,278.281144 C173.980517,282.569643 172.262456,296.507264 172.262456,296.507264 C172.262456,296.507264 185.911501,294.752879 190.111207,290.46438 C191.924717,288.515062 193.356435,286.273347 193.929122,283.934166 C190.206655,286.175881 186.293292,286.468278 184.097992,284.324029 C181.902691,282.082313 182.189034,278.086212 184.479783,274.285042 L184.479783,274.285042 Z" id="Shape" fill="#FF9A66" transform="translate(183.095789, 285.396153) rotate(-45.000000) translate(-183.095789, -285.396153) "></path>
            </g>
        </g>
    </g>
</svg>