<?xml version="1.0"?><svg width="640" height="480" xmlns="http://www.w3.org/2000/svg">
 <metadata id="metadata6317">image/svg+xml</metadata>
 <g>
  <title>Layer 1</title>
  <g id="layer1">
   <path fill="#aaaaaa" stroke="#ffffff" stroke-width="10" stroke-linecap="round" stroke-linejoin="round" stroke-miterlimit="4" d="m482.282196,318.952179c0,0 -137.035828,-90.856934 -193.167267,-69.365356c-56.131393,21.491516 -92.800049,172.020355 -92.800049,172.020355c0,0 32.519913,-161.689178 10.118835,-200.822418c-22.401062,-39.13324 -88.253899,-46.018738 -88.253899,-46.018738c0,0 70.030907,-19.343994 87.286003,-43.584351c17.255127,-24.240356 13.022522,-99.956573 13.022522,-99.956573c0,0 40.915619,63.865448 69.10144,73.412964c28.185822,9.547485 96.290314,-15.779541 96.290314,-15.779541c0,0 -51.923737,44.49826 -44.581573,88.957825c7.342194,44.459564 142.983673,141.135834 142.983673,141.135834z" id="polygon7583"/>
  </g>
 </g>
</svg>